<?xml version="1.0" encoding="UTF-8"?><svg id="Layer_1" xmlns="http://www.w3.org/2000/svg" viewBox="0 0 513.14 39.82"><defs><style>.cls-1{fill:#236cff;}.cls-2{fill:#3c4348;}</style></defs><path class="cls-1" d="m101.78,23.05c0,9.69,8.05,16.78,18.26,16.78s18.27-7.09,18.27-16.78V.78h-9.9v21.12c0,5.23-3.63,8.76-8.4,8.76s-8.4-3.51-8.4-8.76V.78h-9.9l.06,22.27h0Zm62.98-13.36h11.81v29.4h9.9V9.69h11.81V.76h-33.51v8.93Zm-6.39-8.93h-9.9v38.33h9.9V.76ZM61.82,9.69h11.81v29.4h9.9V9.69h11.8V.76h-33.5v8.93ZM9.9.76H0v38.33h9.9V.76Zm46.7,16.01C56.6,7.08,48.55,0,38.33,0s-18.27,7.08-18.27,16.77v22.32h9.9v-21.12c0-5.23,3.63-8.76,8.4-8.76s8.4,3.51,8.4,8.76v21.12h9.9l-.06-22.32Z"/><path class="cls-2" d="m232.56,18.96h-5.58v20.13h-4.76v-20.13h-4.76v-3.91h4.76v-5.02c0-5.62,2.48-9.89,8.98-9.89,1.11,0,2.08.11,2.99.35l-.56,4.11c-.71-.2-1.47-.35-2.39-.35-3.6,0-4.26,2.84-4.26,5.78v5.02h5.58v3.91Z"/><path class="cls-2" d="m247.31,39.75c-7.35,0-12.93-5.33-12.93-12.73s5.58-12.63,12.93-12.63,12.98,5.22,12.98,12.63-5.62,12.73-12.98,12.73Zm0-21.4c-5.12,0-8.01,4.11-8.01,8.67s2.89,8.72,8.01,8.72,8.01-4.16,8.01-8.72-2.84-8.67-8.01-8.67Z"/><path class="cls-2" d="m265.66,15.05h4.51c.11,1.22.2,3.04.2,4.05h.15c1.32-2.79,4.11-4.71,7.35-4.71.66,0,1.32.05,1.88.2l-.2,4.41c-.6-.15-1.42-.25-2.18-.25-4.56,0-6.75,3.7-6.75,7.7v12.63h-4.76v-18.87c0-1.26-.05-3.6-.2-5.17h0Z"/><path class="cls-2" d="m300.15,34.63h18.76v4.47h-23.78V3.19h23.02v4.41h-18.01v10.75h16.93v4.31h-16.93v11.97h0Z"/><path class="cls-2" d="m334.82,39.75c-7.41,0-12.12-5.68-12.12-12.73s4.87-12.63,12.06-12.63c3.9,0,6.9,1.93,8.57,4.25h.11V.75h4.76v38.34h-4.62v-3.8h-.11c-1.83,2.89-5.27,4.47-8.67,4.47h.02Zm.81-4.01c4.87,0,8.12-4.05,8.12-8.67s-3.25-8.72-8.12-8.72c-5.22,0-7.96,4.16-7.96,8.67s2.74,8.72,7.96,8.72Z"/><path class="cls-2" d="m372.44,39.1c-.11-1.22-.2-2.94-.2-3.96h-.11c-1.22,2.54-4.36,4.62-7.86,4.62-6.19,0-8.98-4.41-8.98-9.78v-14.91h4.76v13.28c0,3.96,1.06,7.41,5.47,7.41,3.8,0,6.44-3.14,6.44-7.91v-12.77h4.76v18.87c0,1.26.05,3.6.2,5.17h-4.51.02Z"/><path class="cls-2" d="m400.84,21.14c-1.02-1.57-3.25-2.74-5.53-2.74-4.97,0-7.86,4.05-7.86,8.67s2.89,8.67,7.91,8.67c2.43,0,4.51-1.02,5.78-2.64l3.19,2.89c-2.03,2.33-5.12,3.76-8.98,3.76-7.41,0-12.93-5.02-12.93-12.68s5.48-12.68,12.83-12.68c3.39,0,7.05,1.37,9.03,3.96l-3.45,2.79h0Z"/><path class="cls-2" d="m422.99,23.52c0-3.55-2.39-5.27-5.93-5.27-2.68,0-5.22,1.17-6.84,2.79l-2.54-3.04c2.33-2.23,5.93-3.6,9.84-3.6,6.9,0,10.04,4.11,10.04,9.43v10.49c0,1.62.11,3.6.35,4.76h-4.31c-.25-1.06-.4-2.33-.4-3.45h-.15c-1.72,2.59-4.47,4.05-8.06,4.05-3.8,0-8.72-1.88-8.72-7.41,0-7.25,8.63-8.12,16.73-8.12v-.66.02Zm-1.17,4.11c-4.71,0-10.7.51-10.7,4.56,0,2.84,2.54,3.76,4.92,3.76,4.47,0,6.95-2.99,6.95-7.05v-1.26h-1.17,0Z"/><path class="cls-2" d="m445.76,18.96h-6.39v12.52c0,2.89,1.02,4.05,3.4,4.05.86,0,1.97-.2,2.79-.6l.15,3.9c-1.11.4-2.59.66-4.05.66-4.51,0-7-2.54-7-7.5v-13.03h-4.62v-3.91h4.62v-6.9h4.71v6.9h6.39v3.91h0Z"/><path class="cls-2" d="m452.09,9.43c-1.72,0-3.14-1.37-3.14-3.04s1.42-3.1,3.14-3.1,3.19,1.32,3.19,3.1-1.47,3.04-3.19,3.04Zm2.39,29.67h-4.76V15.06h4.76v24.03Z"/><path class="cls-2" d="m473.13,39.75c-7.35,0-12.93-5.33-12.93-12.73s5.58-12.63,12.93-12.63,12.98,5.22,12.98,12.63-5.62,12.73-12.98,12.73Zm0-21.4c-5.12,0-8.01,4.11-8.01,8.67s2.89,8.72,8.01,8.72,8.01-4.16,8.01-8.72-2.84-8.67-8.01-8.67Z"/><path class="cls-2" d="m496,15.05c.11,1.22.2,2.94.2,3.96h.15c1.17-2.59,4.36-4.62,7.81-4.62,6.19,0,8.98,4.41,8.98,9.78v14.91h-4.76v-13.34c0-3.91-1.06-7.35-5.47-7.35-3.76,0-6.44,3.14-6.44,7.91v12.77h-4.76v-18.87c0-1.26-.05-3.6-.2-5.17h4.51-.02Z"/></svg>